<?xml version="1.0" encoding="UTF-8" standalone="no"?>
<!-- Created with Inkscape (http://www.inkscape.org/) -->

<svg
   xmlns:dc="http://purl.org/dc/elements/1.1/"
   xmlns:cc="http://creativecommons.org/ns#"
   xmlns:rdf="http://www.w3.org/1999/02/22-rdf-syntax-ns#"
   xmlns:svg="http://www.w3.org/2000/svg"
   xmlns="http://www.w3.org/2000/svg"
   xmlns:sodipodi="http://sodipodi.sourceforge.net/DTD/sodipodi-0.dtd"
   xmlns:inkscape="http://www.inkscape.org/namespaces/inkscape"
   width="210mm"
   height="297mm"
   viewBox="0 0 210 297"
   version="1.1"
   id="svg8"
   inkscape:export-filename="D:\golden blog\img\logo.png"
   inkscape:export-xdpi="344.89224"
   inkscape:export-ydpi="344.89224"
   inkscape:version="0.92.4 (5da689c313, 2019-01-14)"
   sodipodi:docname="logo.svg">
  <defs
     id="defs2" />
  <sodipodi:namedview
     id="base"
     pagecolor="#ffffff"
     bordercolor="#666666"
     borderopacity="1.0"
     inkscape:pageopacity="0.0"
     inkscape:pageshadow="2"
     inkscape:zoom="1.7701885"
     inkscape:cx="397.64138"
     inkscape:cy="654.05469"
     inkscape:document-units="mm"
     inkscape:current-layer="layer1"
     showgrid="false"
     inkscape:snap-bbox="true"
     inkscape:bbox-paths="true"
     inkscape:snap-bbox-edge-midpoints="true"
     inkscape:snap-bbox-midpoints="true"
     inkscape:bbox-nodes="true"
     inkscape:object-paths="true"
     inkscape:snap-intersection-paths="true"
     inkscape:snap-smooth-nodes="true"
     inkscape:snap-midpoints="true"
     inkscape:snap-object-midpoints="true"
     inkscape:snap-center="true"
     inkscape:snap-text-baseline="true"
     inkscape:snap-page="true"
     inkscape:snap-global="false"
     showguides="true"
     inkscape:guide-bbox="true"
     inkscape:window-width="1920"
     inkscape:window-height="1017"
     inkscape:window-x="-8"
     inkscape:window-y="-8"
     inkscape:window-maximized="1" />
  <metadata
     id="metadata5">
    <rdf:RDF>
      <cc:Work
         rdf:about="">
        <dc:format>image/svg+xml</dc:format>
        <dc:type
           rdf:resource="http://purl.org/dc/dcmitype/StillImage" />
        <dc:title />
      </cc:Work>
    </rdf:RDF>
  </metadata>
  <g
     inkscape:label="Ebene 1"
     inkscape:groupmode="layer"
     id="layer1">
    <circle
       style="fill:#000000;fill-opacity:1;stroke:#ff8900;stroke-width:7;stroke-linecap:round;stroke-linejoin:miter;stroke-miterlimit:4;stroke-dasharray:none;stroke-opacity:1"
       id="path815"
       cx="106.40029"
       cy="124.45387"
       r="34.206848" />
    <path
       style="fill:#ff8900;fill-opacity:1;stroke:none;stroke-width:12.97819805;stroke-linecap:round;stroke-linejoin:miter;stroke-miterlimit:4;stroke-dasharray:none;stroke-opacity:1"
       id="path823"
       d="m 106.30593,108.59411 c -1.71389,-0.0305 -3.97633,-0.61833 -5.337,0.22612 -0.58782,0.95685 -1.046314,1.98211 -1.497814,3.00783 -0.45855,1.20555 -0.87174,2.43054 -1.17236,3.68573 -0.50709,3.96252 -1.10534,7.92494 0.0196,11.49029 1.01151,2.54431 2.125904,4.95455 4.212914,6.43982 1.73263,1.39861 3.86947,1.4753 4.88034,1.46152 0.57095,-0.0148 1.14209,-0.0117 1.71318,-0.0167 0.26696,-0.0412 0.557,0.0423 0.82228,-0.007 0.0817,-0.0148 0.15274,-0.0668 0.23239,-0.0907 0.0905,-0.0271 0.18446,-0.0412 0.27668,-0.0617 0.10166,-0.0325 0.20338,-0.0649 0.30509,-0.0974 0.93022,-0.19368 1.87883,-0.34997 2.7855,-0.63634 0.1475,-0.0343 0.85053,-0.19265 0.99132,-0.24414 0.16402,-0.0599 0.31343,-0.15443 0.47305,-0.22531 0.48738,-0.21652 0.98303,-0.38989 1.46358,-0.62283 4.68134,-2.76108 10.3111,-5.93065 -12.48687,7.16872 -0.12203,0.07 0.24339,-0.14122 0.36385,-0.21391 0.33715,-0.20334 0.34255,-0.21213 0.66567,-0.42758 0.47977,-0.32497 0.99032,-0.70019 1.31692,-1.18607 0.29173,-0.34194 0.46125,-0.72346 0.54512,-1.16051 0.0765,-0.44054 0.0327,-0.8898 0.0748,-1.33236 -0.0146,-0.43399 -0.1817,-0.82934 -0.30496,-1.23849 -0.13667,-0.33703 -0.22882,-0.69013 -0.36075,-1.02867 -2.53035,-5.6562 8.95303,-12.99849 13.86217,-9.46109 1.08752,0.86863 1.53257,2.08552 1.869,3.29947 0.88772,5.13645 0.86243,10.99771 -0.0779,15.6985 l -14.66079,6.86467 v 0 c 0.10694,-0.259 0.0391,-0.1418 0.19855,-0.35435 0.8175,-3.19948 0.96716,-5.88346 0.95273,-8.79499 0.009,-0.58805 0.0232,-1.17736 -0.0204,-1.76448 -0.0495,-0.70904 -0.19662,-1.39811 -0.28885,-2.10042 -0.0901,-0.63008 -0.2241,-1.24964 -0.27366,-1.88504 7.43289,2.13947 12.28053,-12.62097 13.41842,-6.75075 0.12276,0.53881 0.0763,1.0902 0.0837,1.64101 -0.0117,0.61413 -0.0327,1.23882 -0.26881,1.81547 -0.1935,0.37384 -0.10269,0.17445 -0.26713,0.60036 -0.21431,0.44942 -0.60052,0.78442 -0.88729,1.18474 -0.312,0.27413 -0.63576,0.59408 -0.99681,0.80392 -7.54618,4.20072 -14.39014,10.05064 -22.86223,10.09568 -3.068804,-0.17524 -5.660719,-1.03981 -7.245331,-2.41189 -4.149243,-3.30656 -4.908801,-5.4069 -5.315295,-10.47951 -0.359756,-3.65085 0.0057,-7.14438 0.799467,-10.46217 0.259223,-1.05624 0.0857,-0.22613 0.374762,-1.24552 1.450432,-4.06803 2.496194,-6.4522 5.177569,-9.26977 4.415384,-4.38028 10.452448,-6.77115 16.080238,-9.35256 1.87965,-0.784 3.76384,-1.304113 5.60754,-1.713554 2.75469,-0.705293 5.31212,-0.343813 7.96035,-0.191756 l -13.20327,9.34412 z"
       inkscape:connector-curvature="0"
       sodipodi:nodetypes="ccccccccccccccccccccccccccccccccccccccccccccccccccc" />
  </g>
</svg>
